<mxfile host="app.diagrams.net" modified="2024-03-03T17:23:34.281Z" agent="Mozilla/5.0 (Windows NT 10.0; Win64; x64) AppleWebKit/537.36 (KHTML, like Gecko) Chrome/121.0.0.0 Safari/537.36" etag="7HAO5rtsEM1SYLP21e6d" version="23.1.7" type="device">
  <diagram name="Страница — 1" id="Cy8QLNytjA-2ubOcpx3c">
    <mxGraphModel dx="2072" dy="1044" grid="1" gridSize="10" guides="1" tooltips="1" connect="1" arrows="1" fold="1" page="1" pageScale="1" pageWidth="3300" pageHeight="4681" math="0" shadow="0">
      <root>
        <mxCell id="0" />
        <mxCell id="1" parent="0" />
        <mxCell id="tvEzzkV83GTAkukXnAIm-401" value="Авторизация" style="rounded=1;whiteSpace=wrap;html=1;" vertex="1" parent="1">
          <mxGeometry x="870" y="200" width="90" height="40" as="geometry" />
        </mxCell>
        <mxCell id="tvEzzkV83GTAkukXnAIm-402" style="edgeStyle=orthogonalEdgeStyle;rounded=0;orthogonalLoop=1;jettySize=auto;html=1;dashed=1;endArrow=none;endFill=0;" edge="1" parent="1" source="tvEzzkV83GTAkukXnAIm-403" target="tvEzzkV83GTAkukXnAIm-405">
          <mxGeometry relative="1" as="geometry" />
        </mxCell>
        <mxCell id="tvEzzkV83GTAkukXnAIm-403" value="Начальник склада" style="shape=umlActor;verticalLabelPosition=bottom;verticalAlign=top;html=1;outlineConnect=0;" vertex="1" parent="1">
          <mxGeometry x="1030" width="30" height="60" as="geometry" />
        </mxCell>
        <mxCell id="tvEzzkV83GTAkukXnAIm-404" style="edgeStyle=orthogonalEdgeStyle;rounded=0;orthogonalLoop=1;jettySize=auto;html=1;entryX=-0.007;entryY=0.1;entryDx=0;entryDy=0;exitX=1;exitY=0.1;exitDx=0;exitDy=0;exitPerimeter=0;entryPerimeter=0;" edge="1" parent="1" source="tvEzzkV83GTAkukXnAIm-405" target="tvEzzkV83GTAkukXnAIm-408">
          <mxGeometry relative="1" as="geometry" />
        </mxCell>
        <mxCell id="tvEzzkV83GTAkukXnAIm-405" value="" style="rounded=0;whiteSpace=wrap;html=1;" vertex="1" parent="1">
          <mxGeometry x="1040" y="120" width="10" height="200" as="geometry" />
        </mxCell>
        <mxCell id="tvEzzkV83GTAkukXnAIm-406" style="edgeStyle=orthogonalEdgeStyle;rounded=0;orthogonalLoop=1;jettySize=auto;html=1;entryX=0.5;entryY=0;entryDx=0;entryDy=0;dashed=1;endArrow=none;endFill=0;" edge="1" parent="1" source="tvEzzkV83GTAkukXnAIm-407" target="tvEzzkV83GTAkukXnAIm-408">
          <mxGeometry relative="1" as="geometry" />
        </mxCell>
        <mxCell id="tvEzzkV83GTAkukXnAIm-407" value="Клиент" style="rounded=1;whiteSpace=wrap;html=1;" vertex="1" parent="1">
          <mxGeometry x="1200" y="10" width="90" height="40" as="geometry" />
        </mxCell>
        <mxCell id="tvEzzkV83GTAkukXnAIm-408" value="" style="rounded=0;whiteSpace=wrap;html=1;" vertex="1" parent="1">
          <mxGeometry x="1240" y="120" width="10" height="200" as="geometry" />
        </mxCell>
        <mxCell id="tvEzzkV83GTAkukXnAIm-409" value="Сервер" style="rounded=1;whiteSpace=wrap;html=1;" vertex="1" parent="1">
          <mxGeometry x="1400" y="10" width="90" height="40" as="geometry" />
        </mxCell>
        <mxCell id="tvEzzkV83GTAkukXnAIm-410" value="" style="rounded=0;whiteSpace=wrap;html=1;" vertex="1" parent="1">
          <mxGeometry x="1440" y="120" width="10" height="200" as="geometry" />
        </mxCell>
        <mxCell id="tvEzzkV83GTAkukXnAIm-411" value="БД" style="rounded=1;whiteSpace=wrap;html=1;" vertex="1" parent="1">
          <mxGeometry x="1600" y="10" width="90" height="40" as="geometry" />
        </mxCell>
        <mxCell id="tvEzzkV83GTAkukXnAIm-412" style="edgeStyle=orthogonalEdgeStyle;rounded=0;orthogonalLoop=1;jettySize=auto;html=1;exitX=0;exitY=0.75;exitDx=0;exitDy=0;entryX=0.995;entryY=0.851;entryDx=0;entryDy=0;entryPerimeter=0;dashed=1;endArrow=open;endFill=0;" edge="1" parent="1" target="tvEzzkV83GTAkukXnAIm-410">
          <mxGeometry relative="1" as="geometry">
            <mxPoint x="1644.0000000000005" y="290.04" as="sourcePoint" />
            <mxPoint x="1454" y="290.8400000000002" as="targetPoint" />
            <Array as="points">
              <mxPoint x="1544" y="290" />
            </Array>
          </mxGeometry>
        </mxCell>
        <mxCell id="tvEzzkV83GTAkukXnAIm-413" style="edgeStyle=orthogonalEdgeStyle;rounded=0;orthogonalLoop=1;jettySize=auto;html=1;exitX=0.5;exitY=1;exitDx=0;exitDy=0;entryX=0.5;entryY=0;entryDx=0;entryDy=0;endArrow=none;endFill=0;dashed=1;" edge="1" parent="1" source="tvEzzkV83GTAkukXnAIm-414" target="tvEzzkV83GTAkukXnAIm-435">
          <mxGeometry relative="1" as="geometry" />
        </mxCell>
        <mxCell id="tvEzzkV83GTAkukXnAIm-414" value="" style="rounded=0;whiteSpace=wrap;html=1;" vertex="1" parent="1">
          <mxGeometry x="1640" y="190" width="10" height="120" as="geometry" />
        </mxCell>
        <mxCell id="tvEzzkV83GTAkukXnAIm-415" style="edgeStyle=orthogonalEdgeStyle;rounded=0;orthogonalLoop=1;jettySize=auto;html=1;entryX=0.5;entryY=0;entryDx=0;entryDy=0;dashed=1;endArrow=none;endFill=0;" edge="1" parent="1">
          <mxGeometry relative="1" as="geometry">
            <mxPoint x="1444.62" y="50" as="sourcePoint" />
            <mxPoint x="1444.62" y="120" as="targetPoint" />
          </mxGeometry>
        </mxCell>
        <mxCell id="tvEzzkV83GTAkukXnAIm-416" style="edgeStyle=orthogonalEdgeStyle;rounded=0;orthogonalLoop=1;jettySize=auto;html=1;dashed=1;endArrow=none;endFill=0;entryX=0.5;entryY=0;entryDx=0;entryDy=0;" edge="1" parent="1" target="tvEzzkV83GTAkukXnAIm-414">
          <mxGeometry relative="1" as="geometry">
            <mxPoint x="1644.62" y="50" as="sourcePoint" />
            <mxPoint x="1645" y="170" as="targetPoint" />
          </mxGeometry>
        </mxCell>
        <mxCell id="tvEzzkV83GTAkukXnAIm-417" style="edgeStyle=orthogonalEdgeStyle;rounded=0;orthogonalLoop=1;jettySize=auto;html=1;entryX=-0.007;entryY=0.1;entryDx=0;entryDy=0;exitX=1;exitY=0.1;exitDx=0;exitDy=0;exitPerimeter=0;entryPerimeter=0;" edge="1" parent="1">
          <mxGeometry relative="1" as="geometry">
            <mxPoint x="1250" y="159.63" as="sourcePoint" />
            <mxPoint x="1440" y="159.63" as="targetPoint" />
          </mxGeometry>
        </mxCell>
        <mxCell id="tvEzzkV83GTAkukXnAIm-418" style="edgeStyle=orthogonalEdgeStyle;rounded=0;orthogonalLoop=1;jettySize=auto;html=1;entryX=-0.007;entryY=0.1;entryDx=0;entryDy=0;exitX=1;exitY=0.1;exitDx=0;exitDy=0;exitPerimeter=0;entryPerimeter=0;" edge="1" parent="1">
          <mxGeometry relative="1" as="geometry">
            <mxPoint x="1450" y="240" as="sourcePoint" />
            <mxPoint x="1640" y="240" as="targetPoint" />
          </mxGeometry>
        </mxCell>
        <mxCell id="tvEzzkV83GTAkukXnAIm-419" style="edgeStyle=orthogonalEdgeStyle;rounded=0;orthogonalLoop=1;jettySize=auto;html=1;exitX=1;exitY=0.1;exitDx=0;exitDy=0;exitPerimeter=0;" edge="1" parent="1">
          <mxGeometry relative="1" as="geometry">
            <mxPoint x="1450" y="159.63" as="sourcePoint" />
            <mxPoint x="1450" y="180" as="targetPoint" />
            <Array as="points">
              <mxPoint x="1540" y="160" />
              <mxPoint x="1540" y="180" />
              <mxPoint x="1450" y="180" />
            </Array>
          </mxGeometry>
        </mxCell>
        <mxCell id="tvEzzkV83GTAkukXnAIm-420" value="" style="rounded=0;whiteSpace=wrap;html=1;" vertex="1" parent="1">
          <mxGeometry x="1644" y="230" width="16" height="60" as="geometry" />
        </mxCell>
        <mxCell id="tvEzzkV83GTAkukXnAIm-421" style="edgeStyle=orthogonalEdgeStyle;rounded=0;orthogonalLoop=1;jettySize=auto;html=1;exitX=1;exitY=0.1;exitDx=0;exitDy=0;exitPerimeter=0;" edge="1" parent="1">
          <mxGeometry relative="1" as="geometry">
            <mxPoint x="1660" y="239.85000000000002" as="sourcePoint" />
            <mxPoint x="1660" y="260.22" as="targetPoint" />
            <Array as="points">
              <mxPoint x="1750" y="240.22000000000003" />
              <mxPoint x="1750" y="260.22" />
              <mxPoint x="1660" y="260.22" />
            </Array>
          </mxGeometry>
        </mxCell>
        <mxCell id="tvEzzkV83GTAkukXnAIm-422" style="edgeStyle=orthogonalEdgeStyle;rounded=0;orthogonalLoop=1;jettySize=auto;html=1;exitX=0;exitY=0.75;exitDx=0;exitDy=0;entryX=0.992;entryY=0.899;entryDx=0;entryDy=0;entryPerimeter=0;dashed=1;endArrow=open;endFill=0;" edge="1" parent="1" target="tvEzzkV83GTAkukXnAIm-408">
          <mxGeometry relative="1" as="geometry">
            <mxPoint x="1440" y="300" as="sourcePoint" />
            <mxPoint x="1250" y="301" as="targetPoint" />
          </mxGeometry>
        </mxCell>
        <mxCell id="tvEzzkV83GTAkukXnAIm-423" style="edgeStyle=orthogonalEdgeStyle;rounded=0;orthogonalLoop=1;jettySize=auto;html=1;exitX=0;exitY=0.75;exitDx=0;exitDy=0;entryX=1.034;entryY=0.993;entryDx=0;entryDy=0;entryPerimeter=0;dashed=1;endArrow=open;endFill=0;" edge="1" parent="1" target="tvEzzkV83GTAkukXnAIm-405">
          <mxGeometry relative="1" as="geometry">
            <mxPoint x="1241" y="318.52" as="sourcePoint" />
            <mxPoint x="1051" y="319.52" as="targetPoint" />
          </mxGeometry>
        </mxCell>
        <mxCell id="tvEzzkV83GTAkukXnAIm-424" value="Заполнение формы" style="text;html=1;strokeColor=none;fillColor=none;align=center;verticalAlign=middle;whiteSpace=wrap;rounded=0;" vertex="1" parent="1">
          <mxGeometry x="1080" y="110" width="130" height="30" as="geometry" />
        </mxCell>
        <mxCell id="tvEzzkV83GTAkukXnAIm-425" value="Проверка корректности введённых данных" style="text;html=1;strokeColor=none;fillColor=none;align=center;verticalAlign=middle;whiteSpace=wrap;rounded=0;" vertex="1" parent="1">
          <mxGeometry x="1480" y="120" width="140" height="30" as="geometry" />
        </mxCell>
        <mxCell id="tvEzzkV83GTAkukXnAIm-426" value="Поиск пользователя в базе" style="text;html=1;strokeColor=none;fillColor=none;align=center;verticalAlign=middle;whiteSpace=wrap;rounded=0;" vertex="1" parent="1">
          <mxGeometry x="1485" y="205" width="130" height="30" as="geometry" />
        </mxCell>
        <mxCell id="tvEzzkV83GTAkukXnAIm-427" value="Найденное совпадение" style="text;html=1;strokeColor=none;fillColor=none;align=center;verticalAlign=middle;whiteSpace=wrap;rounded=0;" vertex="1" parent="1">
          <mxGeometry x="1480" y="260" width="130" height="30" as="geometry" />
        </mxCell>
        <mxCell id="tvEzzkV83GTAkukXnAIm-428" value="Результат" style="text;html=1;strokeColor=none;fillColor=none;align=center;verticalAlign=middle;whiteSpace=wrap;rounded=0;" vertex="1" parent="1">
          <mxGeometry x="1280" y="270" width="130" height="30" as="geometry" />
        </mxCell>
        <mxCell id="tvEzzkV83GTAkukXnAIm-429" value="Отображение главной страницы" style="text;html=1;strokeColor=none;fillColor=none;align=center;verticalAlign=middle;whiteSpace=wrap;rounded=0;" vertex="1" parent="1">
          <mxGeometry x="1080" y="280" width="130" height="30" as="geometry" />
        </mxCell>
        <mxCell id="tvEzzkV83GTAkukXnAIm-430" style="edgeStyle=orthogonalEdgeStyle;rounded=0;orthogonalLoop=1;jettySize=auto;html=1;entryX=0.5;entryY=0;entryDx=0;entryDy=0;dashed=1;endArrow=none;endFill=0;" edge="1" parent="1" target="tvEzzkV83GTAkukXnAIm-434">
          <mxGeometry relative="1" as="geometry">
            <mxPoint x="1044.83" y="320" as="sourcePoint" />
            <mxPoint x="1045" y="400" as="targetPoint" />
          </mxGeometry>
        </mxCell>
        <mxCell id="tvEzzkV83GTAkukXnAIm-431" style="edgeStyle=orthogonalEdgeStyle;rounded=0;orthogonalLoop=1;jettySize=auto;html=1;entryX=0.5;entryY=0;entryDx=0;entryDy=0;dashed=1;endArrow=none;endFill=0;" edge="1" parent="1" target="tvEzzkV83GTAkukXnAIm-458">
          <mxGeometry relative="1" as="geometry">
            <mxPoint x="1244.6699999999998" y="320" as="sourcePoint" />
            <mxPoint x="1245" y="425" as="targetPoint" />
          </mxGeometry>
        </mxCell>
        <mxCell id="tvEzzkV83GTAkukXnAIm-432" style="edgeStyle=orthogonalEdgeStyle;rounded=0;orthogonalLoop=1;jettySize=auto;html=1;entryX=0.5;entryY=0;entryDx=0;entryDy=0;dashed=1;endArrow=none;endFill=0;" edge="1" parent="1" target="tvEzzkV83GTAkukXnAIm-445">
          <mxGeometry relative="1" as="geometry">
            <mxPoint x="1444.6799999999998" y="320" as="sourcePoint" />
            <mxPoint x="1444.85" y="400" as="targetPoint" />
          </mxGeometry>
        </mxCell>
        <mxCell id="tvEzzkV83GTAkukXnAIm-433" value="Составление отчета" style="rounded=1;whiteSpace=wrap;html=1;" vertex="1" parent="1">
          <mxGeometry x="870" y="505" width="90" height="40" as="geometry" />
        </mxCell>
        <mxCell id="tvEzzkV83GTAkukXnAIm-434" value="" style="rounded=0;whiteSpace=wrap;html=1;" vertex="1" parent="1">
          <mxGeometry x="1040" y="425" width="10" height="215" as="geometry" />
        </mxCell>
        <mxCell id="tvEzzkV83GTAkukXnAIm-435" value="" style="rounded=0;whiteSpace=wrap;html=1;" vertex="1" parent="1">
          <mxGeometry x="1640" y="539" width="10" height="105" as="geometry" />
        </mxCell>
        <mxCell id="tvEzzkV83GTAkukXnAIm-436" value="" style="rounded=0;whiteSpace=wrap;html=1;" vertex="1" parent="1">
          <mxGeometry x="1644" y="564" width="16" height="60" as="geometry" />
        </mxCell>
        <mxCell id="tvEzzkV83GTAkukXnAIm-437" style="edgeStyle=orthogonalEdgeStyle;rounded=0;orthogonalLoop=1;jettySize=auto;html=1;exitX=1;exitY=0.1;exitDx=0;exitDy=0;exitPerimeter=0;" edge="1" parent="1">
          <mxGeometry relative="1" as="geometry">
            <mxPoint x="1660" y="573.85" as="sourcePoint" />
            <mxPoint x="1660" y="594.22" as="targetPoint" />
            <Array as="points">
              <mxPoint x="1750" y="574.22" />
              <mxPoint x="1750" y="594.22" />
              <mxPoint x="1660" y="594.22" />
            </Array>
          </mxGeometry>
        </mxCell>
        <mxCell id="tvEzzkV83GTAkukXnAIm-438" value="Нажатие кнопки &quot;Составить отчет&quot;" style="text;html=1;strokeColor=none;fillColor=none;align=center;verticalAlign=middle;whiteSpace=wrap;rounded=0;" vertex="1" parent="1">
          <mxGeometry x="1080" y="415" width="130" height="30" as="geometry" />
        </mxCell>
        <mxCell id="tvEzzkV83GTAkukXnAIm-439" value="Выборка из БД" style="text;html=1;strokeColor=none;fillColor=none;align=center;verticalAlign=middle;whiteSpace=wrap;rounded=0;" vertex="1" parent="1">
          <mxGeometry x="1660" y="543" width="130" height="30" as="geometry" />
        </mxCell>
        <mxCell id="tvEzzkV83GTAkukXnAIm-440" style="edgeStyle=orthogonalEdgeStyle;rounded=0;orthogonalLoop=1;jettySize=auto;html=1;dashed=1;endArrow=none;endFill=0;exitX=0.5;exitY=1;exitDx=0;exitDy=0;" edge="1" parent="1" source="tvEzzkV83GTAkukXnAIm-434">
          <mxGeometry relative="1" as="geometry">
            <mxPoint x="1044.65" y="690" as="sourcePoint" />
            <mxPoint x="1045" y="720" as="targetPoint" />
          </mxGeometry>
        </mxCell>
        <mxCell id="tvEzzkV83GTAkukXnAIm-441" style="edgeStyle=orthogonalEdgeStyle;rounded=0;orthogonalLoop=1;jettySize=auto;html=1;dashed=1;endArrow=none;endFill=0;exitX=0.5;exitY=1;exitDx=0;exitDy=0;" edge="1" parent="1" source="tvEzzkV83GTAkukXnAIm-465">
          <mxGeometry relative="1" as="geometry">
            <mxPoint x="1244.4999999999998" y="650" as="sourcePoint" />
            <mxPoint x="1245" y="720" as="targetPoint" />
          </mxGeometry>
        </mxCell>
        <mxCell id="tvEzzkV83GTAkukXnAIm-442" style="edgeStyle=orthogonalEdgeStyle;rounded=0;orthogonalLoop=1;jettySize=auto;html=1;dashed=1;endArrow=none;endFill=0;" edge="1" parent="1">
          <mxGeometry relative="1" as="geometry">
            <mxPoint x="1445" y="610" as="sourcePoint" />
            <mxPoint x="1445" y="720" as="targetPoint" />
          </mxGeometry>
        </mxCell>
        <mxCell id="tvEzzkV83GTAkukXnAIm-443" value="Запрос на открытие формы" style="text;html=1;strokeColor=none;fillColor=none;align=center;verticalAlign=middle;whiteSpace=wrap;rounded=0;" vertex="1" parent="1">
          <mxGeometry x="1279" y="420" width="130" height="30" as="geometry" />
        </mxCell>
        <mxCell id="tvEzzkV83GTAkukXnAIm-444" style="edgeStyle=orthogonalEdgeStyle;rounded=0;orthogonalLoop=1;jettySize=auto;html=1;exitX=0.5;exitY=1;exitDx=0;exitDy=0;entryX=0.5;entryY=0;entryDx=0;entryDy=0;endArrow=none;endFill=0;dashed=1;" edge="1" parent="1" source="tvEzzkV83GTAkukXnAIm-445" target="tvEzzkV83GTAkukXnAIm-451">
          <mxGeometry relative="1" as="geometry" />
        </mxCell>
        <mxCell id="tvEzzkV83GTAkukXnAIm-445" value="" style="rounded=0;whiteSpace=wrap;html=1;" vertex="1" parent="1">
          <mxGeometry x="1440" y="425" width="10" height="97" as="geometry" />
        </mxCell>
        <mxCell id="tvEzzkV83GTAkukXnAIm-446" value="" style="endArrow=classic;html=1;rounded=0;exitX=1.1;exitY=0.396;exitDx=0;exitDy=0;exitPerimeter=0;entryX=-0.08;entryY=0.302;entryDx=0;entryDy=0;entryPerimeter=0;endFill=1;" edge="1" parent="1" source="tvEzzkV83GTAkukXnAIm-458" target="tvEzzkV83GTAkukXnAIm-445">
          <mxGeometry width="50" height="50" relative="1" as="geometry">
            <mxPoint x="1250.23" y="456.6049999999998" as="sourcePoint" />
            <mxPoint x="1370" y="470" as="targetPoint" />
          </mxGeometry>
        </mxCell>
        <mxCell id="tvEzzkV83GTAkukXnAIm-447" style="edgeStyle=orthogonalEdgeStyle;rounded=0;orthogonalLoop=1;jettySize=auto;html=1;exitX=-0.053;exitY=0.668;exitDx=0;exitDy=0;entryX=1.001;entryY=0.868;entryDx=0;entryDy=0;entryPerimeter=0;dashed=1;endArrow=open;endFill=0;exitPerimeter=0;" edge="1" parent="1" source="tvEzzkV83GTAkukXnAIm-445" target="tvEzzkV83GTAkukXnAIm-458">
          <mxGeometry relative="1" as="geometry">
            <mxPoint x="1460" y="489.52" as="sourcePoint" />
            <mxPoint x="1251.19" y="494.875" as="targetPoint" />
            <Array as="points">
              <mxPoint x="1346" y="490" />
            </Array>
          </mxGeometry>
        </mxCell>
        <mxCell id="tvEzzkV83GTAkukXnAIm-448" value="Открытие формы" style="text;html=1;align=center;verticalAlign=middle;resizable=0;points=[];autosize=1;strokeColor=none;fillColor=none;" vertex="1" parent="1">
          <mxGeometry x="1280" y="460" width="120" height="30" as="geometry" />
        </mxCell>
        <mxCell id="tvEzzkV83GTAkukXnAIm-449" style="edgeStyle=orthogonalEdgeStyle;rounded=0;orthogonalLoop=1;jettySize=auto;html=1;exitX=-0.024;exitY=0.862;exitDx=0;exitDy=0;dashed=1;endArrow=open;endFill=0;exitPerimeter=0;entryX=0.969;entryY=0.301;entryDx=0;entryDy=0;entryPerimeter=0;" edge="1" parent="1" source="tvEzzkV83GTAkukXnAIm-458" target="tvEzzkV83GTAkukXnAIm-434">
          <mxGeometry relative="1" as="geometry">
            <mxPoint x="1238.7800000000002" y="494.65999999999985" as="sourcePoint" />
            <mxPoint x="1060" y="500" as="targetPoint" />
          </mxGeometry>
        </mxCell>
        <mxCell id="tvEzzkV83GTAkukXnAIm-450" value="Отображение формы" style="text;html=1;align=center;verticalAlign=middle;resizable=0;points=[];autosize=1;strokeColor=none;fillColor=none;" vertex="1" parent="1">
          <mxGeometry x="1075" y="460" width="140" height="30" as="geometry" />
        </mxCell>
        <mxCell id="tvEzzkV83GTAkukXnAIm-451" value="" style="rounded=0;whiteSpace=wrap;html=1;" vertex="1" parent="1">
          <mxGeometry x="1440" y="539" width="10" height="101" as="geometry" />
        </mxCell>
        <mxCell id="tvEzzkV83GTAkukXnAIm-452" value="" style="endArrow=classic;html=1;rounded=0;exitX=0.989;exitY=0.513;exitDx=0;exitDy=0;exitPerimeter=0;entryX=-0.071;entryY=0.065;entryDx=0;entryDy=0;entryPerimeter=0;endFill=1;" edge="1" parent="1" source="tvEzzkV83GTAkukXnAIm-434" target="tvEzzkV83GTAkukXnAIm-465">
          <mxGeometry width="50" height="50" relative="1" as="geometry">
            <mxPoint x="1140" y="590" as="sourcePoint" />
            <mxPoint x="1238.67" y="535.2950000000001" as="targetPoint" />
          </mxGeometry>
        </mxCell>
        <mxCell id="tvEzzkV83GTAkukXnAIm-453" value="Выбор критериев &lt;br&gt;для отчета в формах" style="text;html=1;align=center;verticalAlign=middle;resizable=0;points=[];autosize=1;strokeColor=none;fillColor=none;" vertex="1" parent="1">
          <mxGeometry x="1075" y="499" width="140" height="40" as="geometry" />
        </mxCell>
        <mxCell id="tvEzzkV83GTAkukXnAIm-454" value="" style="endArrow=classic;html=1;rounded=0;exitX=0.987;exitY=0.58;exitDx=0;exitDy=0;exitPerimeter=0;entryX=-0.056;entryY=0.11;entryDx=0;entryDy=0;entryPerimeter=0;endFill=1;" edge="1" parent="1" target="tvEzzkV83GTAkukXnAIm-451">
          <mxGeometry width="50" height="50" relative="1" as="geometry">
            <mxPoint x="1249.87" y="549.7" as="sourcePoint" />
            <mxPoint x="1370" y="550" as="targetPoint" />
          </mxGeometry>
        </mxCell>
        <mxCell id="tvEzzkV83GTAkukXnAIm-455" value="Передача критериев" style="text;html=1;align=center;verticalAlign=middle;resizable=0;points=[];autosize=1;strokeColor=none;fillColor=none;" vertex="1" parent="1">
          <mxGeometry x="1275" y="522" width="140" height="30" as="geometry" />
        </mxCell>
        <mxCell id="tvEzzkV83GTAkukXnAIm-456" value="" style="endArrow=classic;html=1;rounded=0;exitX=1.067;exitY=0.207;exitDx=0;exitDy=0;exitPerimeter=0;entryX=-0.139;entryY=0.198;entryDx=0;entryDy=0;entryPerimeter=0;endFill=1;" edge="1" parent="1" source="tvEzzkV83GTAkukXnAIm-451" target="tvEzzkV83GTAkukXnAIm-435">
          <mxGeometry width="50" height="50" relative="1" as="geometry">
            <mxPoint x="1550" y="600" as="sourcePoint" />
            <mxPoint x="1620" y="560" as="targetPoint" />
          </mxGeometry>
        </mxCell>
        <mxCell id="tvEzzkV83GTAkukXnAIm-457" value="Запрос на выбор данных по &lt;br&gt;выбранным критериям&amp;nbsp;" style="text;html=1;align=center;verticalAlign=middle;resizable=0;points=[];autosize=1;strokeColor=none;fillColor=none;" vertex="1" parent="1">
          <mxGeometry x="1455" y="524.78" width="180" height="40" as="geometry" />
        </mxCell>
        <mxCell id="tvEzzkV83GTAkukXnAIm-458" value="" style="rounded=0;whiteSpace=wrap;html=1;" vertex="1" parent="1">
          <mxGeometry x="1241.25" y="425" width="7.5" height="75" as="geometry" />
        </mxCell>
        <mxCell id="tvEzzkV83GTAkukXnAIm-459" value="" style="endArrow=none;html=1;rounded=0;entryX=-0.15;entryY=0.846;entryDx=0;entryDy=0;entryPerimeter=0;exitX=1.007;exitY=0.869;exitDx=0;exitDy=0;exitPerimeter=0;startArrow=classic;startFill=1;dashed=1;" edge="1" parent="1" source="tvEzzkV83GTAkukXnAIm-451" target="tvEzzkV83GTAkukXnAIm-435">
          <mxGeometry width="50" height="50" relative="1" as="geometry">
            <mxPoint x="1520" y="700" as="sourcePoint" />
            <mxPoint x="1570" y="650" as="targetPoint" />
          </mxGeometry>
        </mxCell>
        <mxCell id="tvEzzkV83GTAkukXnAIm-460" value="Результат" style="text;html=1;align=center;verticalAlign=middle;resizable=0;points=[];autosize=1;strokeColor=none;fillColor=none;" vertex="1" parent="1">
          <mxGeometry x="1510" y="600" width="80" height="30" as="geometry" />
        </mxCell>
        <mxCell id="tvEzzkV83GTAkukXnAIm-461" value="" style="endArrow=none;html=1;rounded=0;entryX=-0.043;entryY=0.904;entryDx=0;entryDy=0;entryPerimeter=0;dashed=1;startArrow=classic;startFill=1;" edge="1" parent="1" target="tvEzzkV83GTAkukXnAIm-451">
          <mxGeometry width="50" height="50" relative="1" as="geometry">
            <mxPoint x="1249" y="630" as="sourcePoint" />
            <mxPoint x="1436" y="630.3040000000001" as="targetPoint" />
            <Array as="points">
              <mxPoint x="1249" y="630" />
            </Array>
          </mxGeometry>
        </mxCell>
        <mxCell id="tvEzzkV83GTAkukXnAIm-462" value="Составление отчета" style="text;html=1;align=center;verticalAlign=middle;resizable=0;points=[];autosize=1;strokeColor=none;fillColor=none;" vertex="1" parent="1">
          <mxGeometry x="1279" y="600" width="140" height="30" as="geometry" />
        </mxCell>
        <mxCell id="tvEzzkV83GTAkukXnAIm-463" value="" style="endArrow=classic;html=1;rounded=0;exitX=1.068;exitY=0.104;exitDx=0;exitDy=0;exitPerimeter=0;entryX=-0.099;entryY=0.294;entryDx=0;entryDy=0;entryPerimeter=0;endFill=1;" edge="1" parent="1" source="tvEzzkV83GTAkukXnAIm-434" target="tvEzzkV83GTAkukXnAIm-458">
          <mxGeometry width="50" height="50" relative="1" as="geometry">
            <mxPoint x="1130" y="500" as="sourcePoint" />
            <mxPoint x="1180" y="450" as="targetPoint" />
          </mxGeometry>
        </mxCell>
        <mxCell id="tvEzzkV83GTAkukXnAIm-464" value="" style="endArrow=none;html=1;rounded=0;exitX=1.198;exitY=0.953;exitDx=0;exitDy=0;exitPerimeter=0;dashed=1;startArrow=classic;startFill=1;" edge="1" parent="1" source="tvEzzkV83GTAkukXnAIm-434">
          <mxGeometry width="50" height="50" relative="1" as="geometry">
            <mxPoint x="1120" y="670" as="sourcePoint" />
            <mxPoint x="1240" y="630" as="targetPoint" />
          </mxGeometry>
        </mxCell>
        <mxCell id="tvEzzkV83GTAkukXnAIm-465" value="" style="rounded=0;whiteSpace=wrap;html=1;" vertex="1" parent="1">
          <mxGeometry x="1241.25" y="528" width="7.25" height="112" as="geometry" />
        </mxCell>
        <mxCell id="tvEzzkV83GTAkukXnAIm-466" value="Отображение отчета" style="text;html=1;align=center;verticalAlign=middle;resizable=0;points=[];autosize=1;strokeColor=none;fillColor=none;" vertex="1" parent="1">
          <mxGeometry x="1076" y="600" width="140" height="30" as="geometry" />
        </mxCell>
        <mxCell id="tvEzzkV83GTAkukXnAIm-467" value="" style="endArrow=none;html=1;rounded=0;exitX=0.5;exitY=0;exitDx=0;exitDy=0;entryX=0.5;entryY=1;entryDx=0;entryDy=0;dashed=1;" edge="1" parent="1" source="tvEzzkV83GTAkukXnAIm-465" target="tvEzzkV83GTAkukXnAIm-458">
          <mxGeometry width="50" height="50" relative="1" as="geometry">
            <mxPoint x="1270" y="534" as="sourcePoint" />
            <mxPoint x="1270" y="504" as="targetPoint" />
          </mxGeometry>
        </mxCell>
        <mxCell id="tvEzzkV83GTAkukXnAIm-468" value="" style="endArrow=none;dashed=1;html=1;rounded=0;entryX=0.5;entryY=1;entryDx=0;entryDy=0;" edge="1" parent="1" target="tvEzzkV83GTAkukXnAIm-435">
          <mxGeometry width="50" height="50" relative="1" as="geometry">
            <mxPoint x="1645" y="720" as="sourcePoint" />
            <mxPoint x="1570" y="730" as="targetPoint" />
          </mxGeometry>
        </mxCell>
        <mxCell id="tvEzzkV83GTAkukXnAIm-469" value="" style="rounded=0;whiteSpace=wrap;html=1;" vertex="1" parent="1">
          <mxGeometry x="1040" y="720" width="10" height="430" as="geometry" />
        </mxCell>
        <mxCell id="tvEzzkV83GTAkukXnAIm-470" value="" style="rounded=0;whiteSpace=wrap;html=1;" vertex="1" parent="1">
          <mxGeometry x="1241.5" y="720" width="7.5" height="110" as="geometry" />
        </mxCell>
        <mxCell id="tvEzzkV83GTAkukXnAIm-471" value="" style="rounded=0;whiteSpace=wrap;html=1;" vertex="1" parent="1">
          <mxGeometry x="1441.5" y="720" width="7.5" height="110" as="geometry" />
        </mxCell>
        <mxCell id="tvEzzkV83GTAkukXnAIm-472" value="" style="endArrow=classic;html=1;rounded=0;exitX=1.068;exitY=0.104;exitDx=0;exitDy=0;exitPerimeter=0;entryX=-0.099;entryY=0.294;entryDx=0;entryDy=0;entryPerimeter=0;endFill=1;" edge="1" parent="1">
          <mxGeometry width="50" height="50" relative="1" as="geometry">
            <mxPoint x="1051" y="734.71" as="sourcePoint" />
            <mxPoint x="1241" y="734.71" as="targetPoint" />
          </mxGeometry>
        </mxCell>
        <mxCell id="tvEzzkV83GTAkukXnAIm-473" style="edgeStyle=orthogonalEdgeStyle;rounded=0;orthogonalLoop=1;jettySize=auto;html=1;exitX=-0.024;exitY=0.862;exitDx=0;exitDy=0;dashed=1;endArrow=open;endFill=0;exitPerimeter=0;entryX=0.969;entryY=0.301;entryDx=0;entryDy=0;entryPerimeter=0;" edge="1" parent="1">
          <mxGeometry relative="1" as="geometry">
            <mxPoint x="1240" y="820" as="sourcePoint" />
            <mxPoint x="1049" y="820" as="targetPoint" />
          </mxGeometry>
        </mxCell>
        <mxCell id="tvEzzkV83GTAkukXnAIm-474" value="" style="endArrow=classic;html=1;rounded=0;exitX=1.1;exitY=0.396;exitDx=0;exitDy=0;exitPerimeter=0;endFill=1;" edge="1" parent="1">
          <mxGeometry width="50" height="50" relative="1" as="geometry">
            <mxPoint x="1249.5" y="739.5" as="sourcePoint" />
            <mxPoint x="1440" y="740" as="targetPoint" />
          </mxGeometry>
        </mxCell>
        <mxCell id="tvEzzkV83GTAkukXnAIm-475" style="edgeStyle=orthogonalEdgeStyle;rounded=0;orthogonalLoop=1;jettySize=auto;html=1;exitX=-0.053;exitY=0.668;exitDx=0;exitDy=0;entryX=1.001;entryY=0.868;entryDx=0;entryDy=0;entryPerimeter=0;dashed=1;endArrow=open;endFill=0;exitPerimeter=0;" edge="1" parent="1">
          <mxGeometry relative="1" as="geometry">
            <mxPoint x="1439" y="820" as="sourcePoint" />
            <mxPoint x="1249" y="820" as="targetPoint" />
            <Array as="points">
              <mxPoint x="1346" y="820" />
            </Array>
          </mxGeometry>
        </mxCell>
        <mxCell id="tvEzzkV83GTAkukXnAIm-476" value="Нажатие кнопки &quot;Принять заказ&quot;" style="text;html=1;strokeColor=none;fillColor=none;align=center;verticalAlign=middle;whiteSpace=wrap;rounded=0;" vertex="1" parent="1">
          <mxGeometry x="1085" y="694" width="130" height="30" as="geometry" />
        </mxCell>
        <mxCell id="tvEzzkV83GTAkukXnAIm-477" value="Запрос на открытие формы" style="text;html=1;strokeColor=none;fillColor=none;align=center;verticalAlign=middle;whiteSpace=wrap;rounded=0;" vertex="1" parent="1">
          <mxGeometry x="1285" y="706" width="130" height="30" as="geometry" />
        </mxCell>
        <mxCell id="tvEzzkV83GTAkukXnAIm-478" value="" style="rounded=0;whiteSpace=wrap;html=1;" vertex="1" parent="1">
          <mxGeometry x="1640" y="730" width="10" height="105" as="geometry" />
        </mxCell>
        <mxCell id="tvEzzkV83GTAkukXnAIm-479" value="" style="rounded=0;whiteSpace=wrap;html=1;" vertex="1" parent="1">
          <mxGeometry x="1644" y="752.5" width="16" height="60" as="geometry" />
        </mxCell>
        <mxCell id="tvEzzkV83GTAkukXnAIm-480" style="edgeStyle=orthogonalEdgeStyle;rounded=0;orthogonalLoop=1;jettySize=auto;html=1;exitX=1;exitY=0.1;exitDx=0;exitDy=0;exitPerimeter=0;" edge="1" parent="1">
          <mxGeometry relative="1" as="geometry">
            <mxPoint x="1660" y="762.35" as="sourcePoint" />
            <mxPoint x="1660" y="782.72" as="targetPoint" />
            <Array as="points">
              <mxPoint x="1750" y="762.72" />
              <mxPoint x="1750" y="782.72" />
              <mxPoint x="1660" y="782.72" />
            </Array>
          </mxGeometry>
        </mxCell>
        <mxCell id="tvEzzkV83GTAkukXnAIm-481" value="Выборка из БД" style="text;html=1;strokeColor=none;fillColor=none;align=center;verticalAlign=middle;whiteSpace=wrap;rounded=0;" vertex="1" parent="1">
          <mxGeometry x="1660" y="724" width="130" height="30" as="geometry" />
        </mxCell>
        <mxCell id="tvEzzkV83GTAkukXnAIm-482" value="" style="endArrow=classic;html=1;rounded=0;entryX=-0.069;entryY=0.171;entryDx=0;entryDy=0;entryPerimeter=0;exitX=1;exitY=0.25;exitDx=0;exitDy=0;endFill=1;" edge="1" parent="1" source="tvEzzkV83GTAkukXnAIm-471" target="tvEzzkV83GTAkukXnAIm-478">
          <mxGeometry width="50" height="50" relative="1" as="geometry">
            <mxPoint x="1450" y="760" as="sourcePoint" />
            <mxPoint x="1580" y="720" as="targetPoint" />
          </mxGeometry>
        </mxCell>
        <mxCell id="tvEzzkV83GTAkukXnAIm-483" value="Запрос на выбор&lt;br&gt;&amp;nbsp;невыполненных заказов" style="text;html=1;align=center;verticalAlign=middle;resizable=0;points=[];autosize=1;strokeColor=none;fillColor=none;" vertex="1" parent="1">
          <mxGeometry x="1465" y="712.5" width="160" height="40" as="geometry" />
        </mxCell>
        <mxCell id="tvEzzkV83GTAkukXnAIm-484" style="edgeStyle=orthogonalEdgeStyle;rounded=0;orthogonalLoop=1;jettySize=auto;html=1;exitX=-0.053;exitY=0.668;exitDx=0;exitDy=0;entryX=1.001;entryY=0.868;entryDx=0;entryDy=0;entryPerimeter=0;dashed=1;endArrow=open;endFill=0;exitPerimeter=0;" edge="1" parent="1">
          <mxGeometry relative="1" as="geometry">
            <mxPoint x="1640" y="820" as="sourcePoint" />
            <mxPoint x="1450" y="820" as="targetPoint" />
            <Array as="points">
              <mxPoint x="1547" y="820" />
            </Array>
          </mxGeometry>
        </mxCell>
        <mxCell id="tvEzzkV83GTAkukXnAIm-485" value="Результат" style="text;html=1;align=center;verticalAlign=middle;resizable=0;points=[];autosize=1;strokeColor=none;fillColor=none;" vertex="1" parent="1">
          <mxGeometry x="1502" y="790" width="80" height="30" as="geometry" />
        </mxCell>
        <mxCell id="tvEzzkV83GTAkukXnAIm-486" value="Составление списка заказов" style="text;html=1;align=center;verticalAlign=middle;resizable=0;points=[];autosize=1;strokeColor=none;fillColor=none;" vertex="1" parent="1">
          <mxGeometry x="1255" y="790" width="180" height="30" as="geometry" />
        </mxCell>
        <mxCell id="tvEzzkV83GTAkukXnAIm-487" value="Отображение списка заказов" style="text;html=1;align=center;verticalAlign=middle;resizable=0;points=[];autosize=1;strokeColor=none;fillColor=none;" vertex="1" parent="1">
          <mxGeometry x="1055" y="790" width="190" height="30" as="geometry" />
        </mxCell>
        <mxCell id="tvEzzkV83GTAkukXnAIm-488" value="Принятие заказа" style="rounded=1;whiteSpace=wrap;html=1;" vertex="1" parent="1">
          <mxGeometry x="870" y="921" width="90" height="40" as="geometry" />
        </mxCell>
        <mxCell id="tvEzzkV83GTAkukXnAIm-489" value="" style="rounded=0;whiteSpace=wrap;html=1;" vertex="1" parent="1">
          <mxGeometry x="1241.5" y="845" width="7.5" height="135" as="geometry" />
        </mxCell>
        <mxCell id="tvEzzkV83GTAkukXnAIm-490" value="" style="endArrow=classic;html=1;rounded=0;exitX=0.043;exitY=0.84;exitDx=0;exitDy=0;exitPerimeter=0;endFill=1;entryX=1;entryY=0.84;entryDx=0;entryDy=0;entryPerimeter=0;" edge="1" parent="1" source="tvEzzkV83GTAkukXnAIm-491" target="tvEzzkV83GTAkukXnAIm-491">
          <mxGeometry width="50" height="50" relative="1" as="geometry">
            <mxPoint x="1120" y="950" as="sourcePoint" />
            <mxPoint x="1240" y="855" as="targetPoint" />
          </mxGeometry>
        </mxCell>
        <mxCell id="tvEzzkV83GTAkukXnAIm-491" value="Выбор заказа для выполнения" style="text;html=1;align=center;verticalAlign=middle;resizable=0;points=[];autosize=1;strokeColor=none;fillColor=none;" vertex="1" parent="1">
          <mxGeometry x="1041.5" y="830" width="200" height="30" as="geometry" />
        </mxCell>
        <mxCell id="tvEzzkV83GTAkukXnAIm-492" value="" style="endArrow=none;dashed=1;html=1;rounded=0;exitX=0.5;exitY=0;exitDx=0;exitDy=0;entryX=0.5;entryY=1;entryDx=0;entryDy=0;" edge="1" parent="1" source="tvEzzkV83GTAkukXnAIm-489" target="tvEzzkV83GTAkukXnAIm-470">
          <mxGeometry width="50" height="50" relative="1" as="geometry">
            <mxPoint x="1240" y="880" as="sourcePoint" />
            <mxPoint x="1290" y="830" as="targetPoint" />
          </mxGeometry>
        </mxCell>
        <mxCell id="tvEzzkV83GTAkukXnAIm-493" value="" style="rounded=0;whiteSpace=wrap;html=1;" vertex="1" parent="1">
          <mxGeometry x="1441.25" y="850" width="7.5" height="130" as="geometry" />
        </mxCell>
        <mxCell id="tvEzzkV83GTAkukXnAIm-494" value="" style="endArrow=classic;html=1;rounded=0;endFill=1;" edge="1" parent="1">
          <mxGeometry width="50" height="50" relative="1" as="geometry">
            <mxPoint x="1250" y="870" as="sourcePoint" />
            <mxPoint x="1440" y="870" as="targetPoint" />
          </mxGeometry>
        </mxCell>
        <mxCell id="tvEzzkV83GTAkukXnAIm-495" value="Передача данных заказа" style="text;html=1;align=center;verticalAlign=middle;resizable=0;points=[];autosize=1;strokeColor=none;fillColor=none;" vertex="1" parent="1">
          <mxGeometry x="1265" y="840" width="160" height="30" as="geometry" />
        </mxCell>
        <mxCell id="tvEzzkV83GTAkukXnAIm-496" value="" style="rounded=0;whiteSpace=wrap;html=1;" vertex="1" parent="1">
          <mxGeometry x="1640" y="870" width="10" height="105" as="geometry" />
        </mxCell>
        <mxCell id="tvEzzkV83GTAkukXnAIm-497" value="" style="rounded=0;whiteSpace=wrap;html=1;" vertex="1" parent="1">
          <mxGeometry x="1644" y="892.5" width="16" height="60" as="geometry" />
        </mxCell>
        <mxCell id="tvEzzkV83GTAkukXnAIm-498" style="edgeStyle=orthogonalEdgeStyle;rounded=0;orthogonalLoop=1;jettySize=auto;html=1;exitX=1;exitY=0.1;exitDx=0;exitDy=0;exitPerimeter=0;" edge="1" parent="1">
          <mxGeometry relative="1" as="geometry">
            <mxPoint x="1660" y="902.35" as="sourcePoint" />
            <mxPoint x="1660" y="922.72" as="targetPoint" />
            <Array as="points">
              <mxPoint x="1750" y="902.72" />
              <mxPoint x="1750" y="922.72" />
              <mxPoint x="1660" y="922.72" />
            </Array>
          </mxGeometry>
        </mxCell>
        <mxCell id="tvEzzkV83GTAkukXnAIm-499" value="" style="endArrow=classic;html=1;rounded=0;entryX=0;entryY=0.095;entryDx=0;entryDy=0;entryPerimeter=0;endFill=1;" edge="1" parent="1" target="tvEzzkV83GTAkukXnAIm-496">
          <mxGeometry width="50" height="50" relative="1" as="geometry">
            <mxPoint x="1450" y="880" as="sourcePoint" />
            <mxPoint x="1520" y="970" as="targetPoint" />
          </mxGeometry>
        </mxCell>
        <mxCell id="tvEzzkV83GTAkukXnAIm-500" value="Выборка из БД" style="text;html=1;strokeColor=none;fillColor=none;align=center;verticalAlign=middle;whiteSpace=wrap;rounded=0;" vertex="1" parent="1">
          <mxGeometry x="1660" y="871" width="130" height="30" as="geometry" />
        </mxCell>
        <mxCell id="tvEzzkV83GTAkukXnAIm-501" value="Запрос на выбор кладовщиков,&lt;br&gt;&amp;nbsp;готовых к выполнению заказа" style="text;html=1;align=center;verticalAlign=middle;resizable=0;points=[];autosize=1;strokeColor=none;fillColor=none;" vertex="1" parent="1">
          <mxGeometry x="1448.75" y="840" width="200" height="40" as="geometry" />
        </mxCell>
        <mxCell id="tvEzzkV83GTAkukXnAIm-502" value="" style="endArrow=none;dashed=1;html=1;rounded=0;entryX=-0.206;entryY=0.857;entryDx=0;entryDy=0;entryPerimeter=0;startArrow=classic;startFill=1;" edge="1" parent="1" target="tvEzzkV83GTAkukXnAIm-496">
          <mxGeometry width="50" height="50" relative="1" as="geometry">
            <mxPoint x="1450" y="960" as="sourcePoint" />
            <mxPoint x="1530" y="970" as="targetPoint" />
          </mxGeometry>
        </mxCell>
        <mxCell id="tvEzzkV83GTAkukXnAIm-503" value="Результат запроса" style="text;html=1;align=center;verticalAlign=middle;resizable=0;points=[];autosize=1;strokeColor=none;fillColor=none;" vertex="1" parent="1">
          <mxGeometry x="1483.75" y="930" width="130" height="30" as="geometry" />
        </mxCell>
        <mxCell id="tvEzzkV83GTAkukXnAIm-504" value="" style="endArrow=none;dashed=1;html=1;rounded=0;startArrow=classic;startFill=1;" edge="1" parent="1">
          <mxGeometry width="50" height="50" relative="1" as="geometry">
            <mxPoint x="1250" y="960" as="sourcePoint" />
            <mxPoint x="1440" y="960" as="targetPoint" />
          </mxGeometry>
        </mxCell>
        <mxCell id="tvEzzkV83GTAkukXnAIm-505" value="Составление списка&lt;br&gt;&amp;nbsp;кладовщиков" style="text;html=1;align=center;verticalAlign=middle;resizable=0;points=[];autosize=1;strokeColor=none;fillColor=none;" vertex="1" parent="1">
          <mxGeometry x="1275" y="920" width="140" height="40" as="geometry" />
        </mxCell>
        <mxCell id="tvEzzkV83GTAkukXnAIm-506" value="" style="endArrow=none;dashed=1;html=1;rounded=0;startArrow=classic;startFill=1;" edge="1" parent="1">
          <mxGeometry width="50" height="50" relative="1" as="geometry">
            <mxPoint x="1060" y="960" as="sourcePoint" />
            <mxPoint x="1240" y="960" as="targetPoint" />
          </mxGeometry>
        </mxCell>
        <mxCell id="tvEzzkV83GTAkukXnAIm-507" value="Отображение списка кладовщиков" style="text;html=1;strokeColor=none;fillColor=none;align=center;verticalAlign=middle;whiteSpace=wrap;rounded=0;" vertex="1" parent="1">
          <mxGeometry x="1066" y="930" width="160" height="30" as="geometry" />
        </mxCell>
        <mxCell id="tvEzzkV83GTAkukXnAIm-508" value="" style="endArrow=classic;html=1;rounded=0;" edge="1" parent="1">
          <mxGeometry width="50" height="50" relative="1" as="geometry">
            <mxPoint x="1061" y="1020" as="sourcePoint" />
            <mxPoint x="1231" y="1020" as="targetPoint" />
          </mxGeometry>
        </mxCell>
        <mxCell id="tvEzzkV83GTAkukXnAIm-509" value="" style="rounded=0;whiteSpace=wrap;html=1;" vertex="1" parent="1">
          <mxGeometry x="1241" y="1013.5" width="7.5" height="135" as="geometry" />
        </mxCell>
        <mxCell id="tvEzzkV83GTAkukXnAIm-510" value="" style="endArrow=none;dashed=1;html=1;rounded=0;entryX=0.5;entryY=1;entryDx=0;entryDy=0;exitX=0.5;exitY=0;exitDx=0;exitDy=0;" edge="1" parent="1" source="tvEzzkV83GTAkukXnAIm-509" target="tvEzzkV83GTAkukXnAIm-489">
          <mxGeometry width="50" height="50" relative="1" as="geometry">
            <mxPoint x="1260" y="1060" as="sourcePoint" />
            <mxPoint x="1310" y="1010" as="targetPoint" />
          </mxGeometry>
        </mxCell>
        <mxCell id="tvEzzkV83GTAkukXnAIm-511" value="Выбор кладовщика, &lt;br&gt;который будет выполнять заказ" style="text;html=1;align=center;verticalAlign=middle;resizable=0;points=[];autosize=1;strokeColor=none;fillColor=none;" vertex="1" parent="1">
          <mxGeometry x="1045" y="981" width="200" height="40" as="geometry" />
        </mxCell>
        <mxCell id="tvEzzkV83GTAkukXnAIm-512" value="" style="rounded=0;whiteSpace=wrap;html=1;" vertex="1" parent="1">
          <mxGeometry x="1441.25" y="1020" width="7.5" height="128.5" as="geometry" />
        </mxCell>
        <mxCell id="tvEzzkV83GTAkukXnAIm-513" value="" style="endArrow=classic;html=1;rounded=0;" edge="1" parent="1">
          <mxGeometry width="50" height="50" relative="1" as="geometry">
            <mxPoint x="1250" y="1030" as="sourcePoint" />
            <mxPoint x="1440" y="1030" as="targetPoint" />
          </mxGeometry>
        </mxCell>
        <mxCell id="tvEzzkV83GTAkukXnAIm-514" value="" style="endArrow=none;dashed=1;html=1;rounded=0;entryX=0.5;entryY=1;entryDx=0;entryDy=0;exitX=0.5;exitY=0;exitDx=0;exitDy=0;" edge="1" parent="1" source="tvEzzkV83GTAkukXnAIm-512" target="tvEzzkV83GTAkukXnAIm-493">
          <mxGeometry width="50" height="50" relative="1" as="geometry">
            <mxPoint x="1320" y="1120" as="sourcePoint" />
            <mxPoint x="1370" y="1070" as="targetPoint" />
          </mxGeometry>
        </mxCell>
        <mxCell id="tvEzzkV83GTAkukXnAIm-515" value="Передача данных кладовщика" style="text;html=1;align=center;verticalAlign=middle;resizable=0;points=[];autosize=1;strokeColor=none;fillColor=none;" vertex="1" parent="1">
          <mxGeometry x="1251" y="995.5" width="190" height="30" as="geometry" />
        </mxCell>
        <mxCell id="tvEzzkV83GTAkukXnAIm-516" value="" style="rounded=0;whiteSpace=wrap;html=1;" vertex="1" parent="1">
          <mxGeometry x="1639" y="1036" width="10" height="105" as="geometry" />
        </mxCell>
        <mxCell id="tvEzzkV83GTAkukXnAIm-517" value="" style="rounded=0;whiteSpace=wrap;html=1;" vertex="1" parent="1">
          <mxGeometry x="1643" y="1058.5" width="16" height="60" as="geometry" />
        </mxCell>
        <mxCell id="tvEzzkV83GTAkukXnAIm-518" style="edgeStyle=orthogonalEdgeStyle;rounded=0;orthogonalLoop=1;jettySize=auto;html=1;exitX=1;exitY=0.1;exitDx=0;exitDy=0;exitPerimeter=0;" edge="1" parent="1">
          <mxGeometry relative="1" as="geometry">
            <mxPoint x="1659" y="1068.35" as="sourcePoint" />
            <mxPoint x="1659" y="1088.72" as="targetPoint" />
            <Array as="points">
              <mxPoint x="1749" y="1068.72" />
              <mxPoint x="1749" y="1088.72" />
              <mxPoint x="1659" y="1088.72" />
            </Array>
          </mxGeometry>
        </mxCell>
        <mxCell id="tvEzzkV83GTAkukXnAIm-519" value="Обновление данных" style="text;html=1;strokeColor=none;fillColor=none;align=center;verticalAlign=middle;whiteSpace=wrap;rounded=0;" vertex="1" parent="1">
          <mxGeometry x="1659" y="1037" width="130" height="30" as="geometry" />
        </mxCell>
        <mxCell id="tvEzzkV83GTAkukXnAIm-520" value="" style="endArrow=classic;html=1;rounded=0;" edge="1" parent="1">
          <mxGeometry width="50" height="50" relative="1" as="geometry">
            <mxPoint x="1450" y="1050.6" as="sourcePoint" />
            <mxPoint x="1640" y="1050.6" as="targetPoint" />
          </mxGeometry>
        </mxCell>
        <mxCell id="tvEzzkV83GTAkukXnAIm-521" value="Запрос на обновление &lt;br&gt;данных кладовщика" style="text;html=1;align=center;verticalAlign=middle;resizable=0;points=[];autosize=1;strokeColor=none;fillColor=none;" vertex="1" parent="1">
          <mxGeometry x="1475" y="1013.5" width="150" height="40" as="geometry" />
        </mxCell>
        <mxCell id="tvEzzkV83GTAkukXnAIm-522" value="" style="endArrow=none;dashed=1;html=1;rounded=0;entryX=-0.044;entryY=0.901;entryDx=0;entryDy=0;entryPerimeter=0;startArrow=classic;startFill=1;" edge="1" parent="1" target="tvEzzkV83GTAkukXnAIm-516">
          <mxGeometry width="50" height="50" relative="1" as="geometry">
            <mxPoint x="1450" y="1130" as="sourcePoint" />
            <mxPoint x="1630" y="1130" as="targetPoint" />
          </mxGeometry>
        </mxCell>
        <mxCell id="tvEzzkV83GTAkukXnAIm-523" value="Результат запроса" style="text;html=1;align=center;verticalAlign=middle;resizable=0;points=[];autosize=1;strokeColor=none;fillColor=none;" vertex="1" parent="1">
          <mxGeometry x="1485" y="1100" width="130" height="30" as="geometry" />
        </mxCell>
        <mxCell id="tvEzzkV83GTAkukXnAIm-524" value="" style="endArrow=none;dashed=1;html=1;rounded=0;startArrow=classic;startFill=1;" edge="1" parent="1">
          <mxGeometry width="50" height="50" relative="1" as="geometry">
            <mxPoint x="1250" y="1130" as="sourcePoint" />
            <mxPoint x="1440" y="1130" as="targetPoint" />
          </mxGeometry>
        </mxCell>
        <mxCell id="tvEzzkV83GTAkukXnAIm-525" value="Сообщение о выполнении запроса" style="text;html=1;strokeColor=none;fillColor=none;align=center;verticalAlign=middle;whiteSpace=wrap;rounded=0;" vertex="1" parent="1">
          <mxGeometry x="1260" y="1090" width="170" height="30" as="geometry" />
        </mxCell>
        <mxCell id="tvEzzkV83GTAkukXnAIm-526" value="" style="endArrow=none;dashed=1;html=1;rounded=0;startArrow=classic;startFill=1;exitX=1;exitY=0.953;exitDx=0;exitDy=0;exitPerimeter=0;" edge="1" parent="1" source="tvEzzkV83GTAkukXnAIm-469">
          <mxGeometry width="50" height="50" relative="1" as="geometry">
            <mxPoint x="1060" y="1130" as="sourcePoint" />
            <mxPoint x="1240" y="1130" as="targetPoint" />
          </mxGeometry>
        </mxCell>
        <mxCell id="tvEzzkV83GTAkukXnAIm-527" value="Отображение сообщения &lt;br&gt;выполнения запроса" style="text;html=1;align=center;verticalAlign=middle;resizable=0;points=[];autosize=1;strokeColor=none;fillColor=none;" vertex="1" parent="1">
          <mxGeometry x="1065" y="1085" width="170" height="40" as="geometry" />
        </mxCell>
        <mxCell id="tvEzzkV83GTAkukXnAIm-528" value="Ввести количество поступившего товара" style="rounded=1;whiteSpace=wrap;html=1;" vertex="1" parent="1">
          <mxGeometry x="860" y="1340" width="120" height="60" as="geometry" />
        </mxCell>
        <mxCell id="tvEzzkV83GTAkukXnAIm-529" style="edgeStyle=orthogonalEdgeStyle;rounded=0;orthogonalLoop=1;jettySize=auto;html=1;dashed=1;endArrow=none;endFill=0;exitX=0.5;exitY=1;exitDx=0;exitDy=0;" edge="1" parent="1">
          <mxGeometry relative="1" as="geometry">
            <mxPoint x="1045" y="1150" as="sourcePoint" />
            <mxPoint x="1045" y="1210" as="targetPoint" />
          </mxGeometry>
        </mxCell>
        <mxCell id="tvEzzkV83GTAkukXnAIm-530" value="" style="rounded=0;whiteSpace=wrap;html=1;" vertex="1" parent="1">
          <mxGeometry x="1041.25" y="1205" width="7.5" height="285" as="geometry" />
        </mxCell>
        <mxCell id="tvEzzkV83GTAkukXnAIm-531" value="" style="rounded=0;whiteSpace=wrap;html=1;" vertex="1" parent="1">
          <mxGeometry x="1241.5" y="1225" width="7.5" height="110" as="geometry" />
        </mxCell>
        <mxCell id="tvEzzkV83GTAkukXnAIm-532" value="" style="rounded=0;whiteSpace=wrap;html=1;" vertex="1" parent="1">
          <mxGeometry x="1441.5" y="1225" width="7.5" height="110" as="geometry" />
        </mxCell>
        <mxCell id="tvEzzkV83GTAkukXnAIm-533" value="" style="endArrow=classic;html=1;rounded=0;exitX=1.1;exitY=0.396;exitDx=0;exitDy=0;exitPerimeter=0;endFill=1;" edge="1" parent="1">
          <mxGeometry width="50" height="50" relative="1" as="geometry">
            <mxPoint x="1249.5" y="1244.5" as="sourcePoint" />
            <mxPoint x="1440" y="1245" as="targetPoint" />
          </mxGeometry>
        </mxCell>
        <mxCell id="tvEzzkV83GTAkukXnAIm-534" style="edgeStyle=orthogonalEdgeStyle;rounded=0;orthogonalLoop=1;jettySize=auto;html=1;exitX=-0.053;exitY=0.668;exitDx=0;exitDy=0;entryX=1.001;entryY=0.868;entryDx=0;entryDy=0;entryPerimeter=0;dashed=1;endArrow=open;endFill=0;exitPerimeter=0;" edge="1" parent="1">
          <mxGeometry relative="1" as="geometry">
            <mxPoint x="1439" y="1325" as="sourcePoint" />
            <mxPoint x="1249" y="1325" as="targetPoint" />
            <Array as="points">
              <mxPoint x="1346" y="1325" />
            </Array>
          </mxGeometry>
        </mxCell>
        <mxCell id="tvEzzkV83GTAkukXnAIm-535" value="Нажатие кнопки &quot;Пополнить товар&quot;" style="text;html=1;strokeColor=none;fillColor=none;align=center;verticalAlign=middle;whiteSpace=wrap;rounded=0;" vertex="1" parent="1">
          <mxGeometry x="1085" y="1199" width="130" height="30" as="geometry" />
        </mxCell>
        <mxCell id="tvEzzkV83GTAkukXnAIm-536" value="Запрос на открытие формы" style="text;html=1;strokeColor=none;fillColor=none;align=center;verticalAlign=middle;whiteSpace=wrap;rounded=0;" vertex="1" parent="1">
          <mxGeometry x="1285" y="1211" width="130" height="30" as="geometry" />
        </mxCell>
        <mxCell id="tvEzzkV83GTAkukXnAIm-537" value="" style="rounded=0;whiteSpace=wrap;html=1;" vertex="1" parent="1">
          <mxGeometry x="1640" y="1235" width="10" height="105" as="geometry" />
        </mxCell>
        <mxCell id="tvEzzkV83GTAkukXnAIm-538" value="" style="rounded=0;whiteSpace=wrap;html=1;" vertex="1" parent="1">
          <mxGeometry x="1644" y="1257.5" width="16" height="60" as="geometry" />
        </mxCell>
        <mxCell id="tvEzzkV83GTAkukXnAIm-539" style="edgeStyle=orthogonalEdgeStyle;rounded=0;orthogonalLoop=1;jettySize=auto;html=1;exitX=1;exitY=0.1;exitDx=0;exitDy=0;exitPerimeter=0;" edge="1" parent="1">
          <mxGeometry relative="1" as="geometry">
            <mxPoint x="1660" y="1267.35" as="sourcePoint" />
            <mxPoint x="1660" y="1287.72" as="targetPoint" />
            <Array as="points">
              <mxPoint x="1750" y="1267.72" />
              <mxPoint x="1750" y="1287.72" />
              <mxPoint x="1660" y="1287.72" />
            </Array>
          </mxGeometry>
        </mxCell>
        <mxCell id="tvEzzkV83GTAkukXnAIm-540" value="Выборка из БД" style="text;html=1;strokeColor=none;fillColor=none;align=center;verticalAlign=middle;whiteSpace=wrap;rounded=0;" vertex="1" parent="1">
          <mxGeometry x="1660" y="1229" width="130" height="30" as="geometry" />
        </mxCell>
        <mxCell id="tvEzzkV83GTAkukXnAIm-541" value="" style="endArrow=classic;html=1;rounded=0;entryX=-0.069;entryY=0.171;entryDx=0;entryDy=0;entryPerimeter=0;exitX=1;exitY=0.25;exitDx=0;exitDy=0;endFill=1;" edge="1" parent="1" source="tvEzzkV83GTAkukXnAIm-532" target="tvEzzkV83GTAkukXnAIm-537">
          <mxGeometry width="50" height="50" relative="1" as="geometry">
            <mxPoint x="1450" y="1265" as="sourcePoint" />
            <mxPoint x="1580" y="1225" as="targetPoint" />
          </mxGeometry>
        </mxCell>
        <mxCell id="tvEzzkV83GTAkukXnAIm-542" value="Запрос на получение &lt;br&gt;списка товаров" style="text;html=1;align=center;verticalAlign=middle;resizable=0;points=[];autosize=1;strokeColor=none;fillColor=none;" vertex="1" parent="1">
          <mxGeometry x="1475" y="1217.5" width="140" height="40" as="geometry" />
        </mxCell>
        <mxCell id="tvEzzkV83GTAkukXnAIm-543" style="edgeStyle=orthogonalEdgeStyle;rounded=0;orthogonalLoop=1;jettySize=auto;html=1;exitX=-0.053;exitY=0.668;exitDx=0;exitDy=0;entryX=1.001;entryY=0.868;entryDx=0;entryDy=0;entryPerimeter=0;dashed=1;endArrow=open;endFill=0;exitPerimeter=0;" edge="1" parent="1">
          <mxGeometry relative="1" as="geometry">
            <mxPoint x="1640" y="1325" as="sourcePoint" />
            <mxPoint x="1450" y="1325" as="targetPoint" />
            <Array as="points">
              <mxPoint x="1547" y="1325" />
            </Array>
          </mxGeometry>
        </mxCell>
        <mxCell id="tvEzzkV83GTAkukXnAIm-544" value="Результат" style="text;html=1;align=center;verticalAlign=middle;resizable=0;points=[];autosize=1;strokeColor=none;fillColor=none;" vertex="1" parent="1">
          <mxGeometry x="1502" y="1295" width="80" height="30" as="geometry" />
        </mxCell>
        <mxCell id="tvEzzkV83GTAkukXnAIm-545" value="Составление списка товаров" style="text;html=1;align=center;verticalAlign=middle;resizable=0;points=[];autosize=1;strokeColor=none;fillColor=none;" vertex="1" parent="1">
          <mxGeometry x="1250" y="1295" width="190" height="30" as="geometry" />
        </mxCell>
        <mxCell id="tvEzzkV83GTAkukXnAIm-546" value="Отображение списка товаров" style="text;html=1;align=center;verticalAlign=middle;resizable=0;points=[];autosize=1;strokeColor=none;fillColor=none;" vertex="1" parent="1">
          <mxGeometry x="1055" y="1295" width="190" height="30" as="geometry" />
        </mxCell>
        <mxCell id="tvEzzkV83GTAkukXnAIm-547" value="" style="endArrow=classic;html=1;rounded=0;exitX=1.1;exitY=0.396;exitDx=0;exitDy=0;exitPerimeter=0;endFill=1;" edge="1" parent="1">
          <mxGeometry width="50" height="50" relative="1" as="geometry">
            <mxPoint x="1050.5" y="1237.14" as="sourcePoint" />
            <mxPoint x="1241" y="1237.64" as="targetPoint" />
          </mxGeometry>
        </mxCell>
        <mxCell id="tvEzzkV83GTAkukXnAIm-548" style="edgeStyle=orthogonalEdgeStyle;rounded=0;orthogonalLoop=1;jettySize=auto;html=1;exitX=-0.053;exitY=0.668;exitDx=0;exitDy=0;entryX=1.001;entryY=0.868;entryDx=0;entryDy=0;entryPerimeter=0;dashed=1;endArrow=open;endFill=0;exitPerimeter=0;" edge="1" parent="1">
          <mxGeometry relative="1" as="geometry">
            <mxPoint x="1240" y="1324.31" as="sourcePoint" />
            <mxPoint x="1050" y="1324.31" as="targetPoint" />
            <Array as="points">
              <mxPoint x="1147" y="1324.31" />
            </Array>
          </mxGeometry>
        </mxCell>
        <mxCell id="tvEzzkV83GTAkukXnAIm-549" style="edgeStyle=orthogonalEdgeStyle;rounded=0;orthogonalLoop=1;jettySize=auto;html=1;dashed=1;endArrow=none;endFill=0;exitX=0.5;exitY=1;exitDx=0;exitDy=0;entryX=0.5;entryY=0;entryDx=0;entryDy=0;" edge="1" parent="1" target="tvEzzkV83GTAkukXnAIm-531">
          <mxGeometry relative="1" as="geometry">
            <mxPoint x="1244.77" y="1148.5" as="sourcePoint" />
            <mxPoint x="1244.77" y="1208.5" as="targetPoint" />
          </mxGeometry>
        </mxCell>
        <mxCell id="tvEzzkV83GTAkukXnAIm-550" style="edgeStyle=orthogonalEdgeStyle;rounded=0;orthogonalLoop=1;jettySize=auto;html=1;dashed=1;endArrow=none;endFill=0;exitX=0.5;exitY=1;exitDx=0;exitDy=0;entryX=0.5;entryY=0;entryDx=0;entryDy=0;" edge="1" parent="1">
          <mxGeometry relative="1" as="geometry">
            <mxPoint x="1444.6399999999999" y="1150" as="sourcePoint" />
            <mxPoint x="1444.87" y="1226.5" as="targetPoint" />
          </mxGeometry>
        </mxCell>
        <mxCell id="tvEzzkV83GTAkukXnAIm-551" style="edgeStyle=orthogonalEdgeStyle;rounded=0;orthogonalLoop=1;jettySize=auto;html=1;dashed=1;endArrow=none;endFill=0;exitX=0.5;exitY=1;exitDx=0;exitDy=0;entryX=0.5;entryY=0;entryDx=0;entryDy=0;" edge="1" parent="1" target="tvEzzkV83GTAkukXnAIm-537">
          <mxGeometry relative="1" as="geometry">
            <mxPoint x="1644" y="1141" as="sourcePoint" />
            <mxPoint x="1644.23" y="1217.5" as="targetPoint" />
          </mxGeometry>
        </mxCell>
        <mxCell id="tvEzzkV83GTAkukXnAIm-552" value="" style="rounded=0;whiteSpace=wrap;html=1;" vertex="1" parent="1">
          <mxGeometry x="1241.5" y="1370" width="7.5" height="120" as="geometry" />
        </mxCell>
        <mxCell id="tvEzzkV83GTAkukXnAIm-553" style="edgeStyle=orthogonalEdgeStyle;rounded=0;orthogonalLoop=1;jettySize=auto;html=1;dashed=1;endArrow=none;endFill=0;exitX=0.5;exitY=1;exitDx=0;exitDy=0;" edge="1" parent="1">
          <mxGeometry relative="1" as="geometry">
            <mxPoint x="1245" y="1335" as="sourcePoint" />
            <mxPoint x="1245" y="1370" as="targetPoint" />
          </mxGeometry>
        </mxCell>
        <mxCell id="tvEzzkV83GTAkukXnAIm-554" value="" style="endArrow=classic;html=1;rounded=0;endFill=1;" edge="1" parent="1">
          <mxGeometry width="50" height="50" relative="1" as="geometry">
            <mxPoint x="1050" y="1380" as="sourcePoint" />
            <mxPoint x="1240" y="1380" as="targetPoint" />
          </mxGeometry>
        </mxCell>
        <mxCell id="tvEzzkV83GTAkukXnAIm-555" value="" style="rounded=0;whiteSpace=wrap;html=1;" vertex="1" parent="1">
          <mxGeometry x="1441.25" y="1380" width="7.5" height="110" as="geometry" />
        </mxCell>
        <mxCell id="tvEzzkV83GTAkukXnAIm-556" value="Ввод количества товара" style="text;html=1;align=center;verticalAlign=middle;resizable=0;points=[];autosize=1;strokeColor=none;fillColor=none;" vertex="1" parent="1">
          <mxGeometry x="1065" y="1350" width="160" height="30" as="geometry" />
        </mxCell>
        <mxCell id="tvEzzkV83GTAkukXnAIm-557" value="" style="endArrow=classic;html=1;rounded=0;endFill=1;" edge="1" parent="1">
          <mxGeometry width="50" height="50" relative="1" as="geometry">
            <mxPoint x="1250" y="1390" as="sourcePoint" />
            <mxPoint x="1440" y="1390" as="targetPoint" />
          </mxGeometry>
        </mxCell>
        <mxCell id="tvEzzkV83GTAkukXnAIm-558" value="Передача данных из формы" style="text;html=1;align=center;verticalAlign=middle;resizable=0;points=[];autosize=1;strokeColor=none;fillColor=none;" vertex="1" parent="1">
          <mxGeometry x="1255" y="1355" width="180" height="30" as="geometry" />
        </mxCell>
        <mxCell id="tvEzzkV83GTAkukXnAIm-559" value="" style="rounded=0;whiteSpace=wrap;html=1;" vertex="1" parent="1">
          <mxGeometry x="1640" y="1386" width="10" height="105" as="geometry" />
        </mxCell>
        <mxCell id="tvEzzkV83GTAkukXnAIm-560" value="" style="rounded=0;whiteSpace=wrap;html=1;" vertex="1" parent="1">
          <mxGeometry x="1644" y="1408.5" width="16" height="60" as="geometry" />
        </mxCell>
        <mxCell id="tvEzzkV83GTAkukXnAIm-561" style="edgeStyle=orthogonalEdgeStyle;rounded=0;orthogonalLoop=1;jettySize=auto;html=1;exitX=1;exitY=0.1;exitDx=0;exitDy=0;exitPerimeter=0;" edge="1" parent="1">
          <mxGeometry relative="1" as="geometry">
            <mxPoint x="1660" y="1418.35" as="sourcePoint" />
            <mxPoint x="1660" y="1438.72" as="targetPoint" />
            <Array as="points">
              <mxPoint x="1750" y="1418.72" />
              <mxPoint x="1750" y="1438.72" />
              <mxPoint x="1660" y="1438.72" />
            </Array>
          </mxGeometry>
        </mxCell>
        <mxCell id="tvEzzkV83GTAkukXnAIm-562" value="Обновление данных" style="text;html=1;strokeColor=none;fillColor=none;align=center;verticalAlign=middle;whiteSpace=wrap;rounded=0;" vertex="1" parent="1">
          <mxGeometry x="1660" y="1380" width="130" height="30" as="geometry" />
        </mxCell>
        <mxCell id="tvEzzkV83GTAkukXnAIm-563" value="" style="endArrow=classic;html=1;rounded=0;entryX=-0.206;entryY=0.133;entryDx=0;entryDy=0;entryPerimeter=0;" edge="1" parent="1" target="tvEzzkV83GTAkukXnAIm-559">
          <mxGeometry width="50" height="50" relative="1" as="geometry">
            <mxPoint x="1450" y="1400" as="sourcePoint" />
            <mxPoint x="1550" y="1420" as="targetPoint" />
          </mxGeometry>
        </mxCell>
        <mxCell id="tvEzzkV83GTAkukXnAIm-564" value="Запрос на изменение&amp;nbsp;&lt;br&gt;количества товара на складе" style="text;html=1;align=center;verticalAlign=middle;resizable=0;points=[];autosize=1;strokeColor=none;fillColor=none;" vertex="1" parent="1">
          <mxGeometry x="1448.75" y="1360" width="190" height="40" as="geometry" />
        </mxCell>
        <mxCell id="tvEzzkV83GTAkukXnAIm-565" value="" style="endArrow=none;dashed=1;html=1;rounded=0;entryX=0;entryY=0.895;entryDx=0;entryDy=0;entryPerimeter=0;startArrow=classic;startFill=1;" edge="1" parent="1" target="tvEzzkV83GTAkukXnAIm-559">
          <mxGeometry width="50" height="50" relative="1" as="geometry">
            <mxPoint x="1450" y="1480" as="sourcePoint" />
            <mxPoint x="1600" y="1470" as="targetPoint" />
          </mxGeometry>
        </mxCell>
        <mxCell id="tvEzzkV83GTAkukXnAIm-566" value="Результат" style="text;html=1;align=center;verticalAlign=middle;resizable=0;points=[];autosize=1;strokeColor=none;fillColor=none;" vertex="1" parent="1">
          <mxGeometry x="1505" y="1450" width="80" height="30" as="geometry" />
        </mxCell>
        <mxCell id="tvEzzkV83GTAkukXnAIm-567" value="" style="endArrow=none;dashed=1;html=1;rounded=0;entryX=0;entryY=0.895;entryDx=0;entryDy=0;entryPerimeter=0;startArrow=classic;startFill=1;" edge="1" parent="1">
          <mxGeometry width="50" height="50" relative="1" as="geometry">
            <mxPoint x="1250" y="1479.35" as="sourcePoint" />
            <mxPoint x="1440" y="1479.35" as="targetPoint" />
          </mxGeometry>
        </mxCell>
        <mxCell id="tvEzzkV83GTAkukXnAIm-568" style="edgeStyle=orthogonalEdgeStyle;rounded=0;orthogonalLoop=1;jettySize=auto;html=1;dashed=1;endArrow=none;endFill=0;exitX=0.5;exitY=1;exitDx=0;exitDy=0;entryX=0.5;entryY=0;entryDx=0;entryDy=0;" edge="1" parent="1" target="tvEzzkV83GTAkukXnAIm-555">
          <mxGeometry relative="1" as="geometry">
            <mxPoint x="1445.1100000000001" y="1335" as="sourcePoint" />
            <mxPoint x="1445.1100000000001" y="1370" as="targetPoint" />
            <Array as="points">
              <mxPoint x="1445" y="1358" />
            </Array>
          </mxGeometry>
        </mxCell>
        <mxCell id="tvEzzkV83GTAkukXnAIm-569" style="edgeStyle=orthogonalEdgeStyle;rounded=0;orthogonalLoop=1;jettySize=auto;html=1;dashed=1;endArrow=none;endFill=0;exitX=0.5;exitY=1;exitDx=0;exitDy=0;entryX=0.5;entryY=0;entryDx=0;entryDy=0;" edge="1" parent="1">
          <mxGeometry relative="1" as="geometry">
            <mxPoint x="1644.98" y="1340" as="sourcePoint" />
            <mxPoint x="1644.87" y="1385" as="targetPoint" />
            <Array as="points">
              <mxPoint x="1644.87" y="1363" />
            </Array>
          </mxGeometry>
        </mxCell>
        <mxCell id="tvEzzkV83GTAkukXnAIm-570" style="edgeStyle=orthogonalEdgeStyle;rounded=0;orthogonalLoop=1;jettySize=auto;html=1;dashed=1;endArrow=none;endFill=0;exitX=0.5;exitY=1;exitDx=0;exitDy=0;entryX=0.5;entryY=0;entryDx=0;entryDy=0;" edge="1" parent="1" target="tvEzzkV83GTAkukXnAIm-516">
          <mxGeometry relative="1" as="geometry">
            <mxPoint x="1644.9" y="976" as="sourcePoint" />
            <mxPoint x="1644.79" y="1021" as="targetPoint" />
            <Array as="points">
              <mxPoint x="1645" y="999" />
              <mxPoint x="1644" y="999" />
            </Array>
          </mxGeometry>
        </mxCell>
        <mxCell id="tvEzzkV83GTAkukXnAIm-571" style="edgeStyle=orthogonalEdgeStyle;rounded=0;orthogonalLoop=1;jettySize=auto;html=1;dashed=1;endArrow=none;endFill=0;exitX=0.5;exitY=1;exitDx=0;exitDy=0;entryX=0.5;entryY=0;entryDx=0;entryDy=0;" edge="1" parent="1" source="tvEzzkV83GTAkukXnAIm-478" target="tvEzzkV83GTAkukXnAIm-496">
          <mxGeometry relative="1" as="geometry">
            <mxPoint x="1660.1100000000001" y="830" as="sourcePoint" />
            <mxPoint x="1660" y="875" as="targetPoint" />
            <Array as="points">
              <mxPoint x="1645" y="850" />
              <mxPoint x="1645" y="850" />
            </Array>
          </mxGeometry>
        </mxCell>
        <mxCell id="tvEzzkV83GTAkukXnAIm-572" value="Сообщение о &lt;br&gt;результате запроса" style="text;html=1;align=center;verticalAlign=middle;resizable=0;points=[];autosize=1;strokeColor=none;fillColor=none;" vertex="1" parent="1">
          <mxGeometry x="1284" y="1440" width="130" height="40" as="geometry" />
        </mxCell>
        <mxCell id="tvEzzkV83GTAkukXnAIm-573" value="" style="endArrow=none;dashed=1;html=1;rounded=0;entryX=0;entryY=0.895;entryDx=0;entryDy=0;entryPerimeter=0;startArrow=classic;startFill=1;" edge="1" parent="1">
          <mxGeometry width="50" height="50" relative="1" as="geometry">
            <mxPoint x="1050" y="1478.95" as="sourcePoint" />
            <mxPoint x="1240" y="1478.95" as="targetPoint" />
          </mxGeometry>
        </mxCell>
        <mxCell id="tvEzzkV83GTAkukXnAIm-574" value="Отображение сообщение" style="text;html=1;align=center;verticalAlign=middle;resizable=0;points=[];autosize=1;strokeColor=none;fillColor=none;" vertex="1" parent="1">
          <mxGeometry x="1061" y="1450" width="170" height="30" as="geometry" />
        </mxCell>
      </root>
    </mxGraphModel>
  </diagram>
</mxfile>
